<svg xmlns="http://www.w3.org/2000/svg" viewBox="0 0 44.05 43.61"><defs><style>.cls-1{fill:#78b953}</style></defs><title>Ресурс 3exit</title><g id="Слой_2" data-name="Слой 2"><g id="Слой_1-2" data-name="Слой 1"><path class="cls-1" d="M0 0v29.29h17.3v2.58h-5.56v1.61h21.13v-1.61H27.3v-2.58H44V0zm42.44 1.61V24.4H1.62V1.61zM25.69 31.87h-6.77v-2.58h6.77zM1.62 27.68V26h40.82v1.67zM2.5 36L0 43h36.42l-2.51-7zm-.21 5.31l1.34-3.7h29.15l1.34 3.7zm40.6-4.12A3 3 0 0 0 37 38.67l.59 2.59a3 3 0 0 0 3.68 2.26h.13a3 3 0 0 0 2.17-3.74zm-1 4.08a1.4 1.4 0 0 1-.87.66h-.13a1.4 1.4 0 0 1-1.72-1.05l-.59-2.59a1.4 1.4 0 0 1 1-1.67 1.4 1.4 0 0 1 1.7 1l.71 2.56a1.39 1.39 0 0 1-.14 1.08zm0 0"/><path class="cls-1" d="M22.48 15.58l2.82 2.82 1.14-1.14-2.82-2.82 2-2-8.96-3.82 3.83 8.94zm.31-2.58L21 14.75l-1.31-3.06zm0 0"/></g></g></svg>