<svg xmlns="http://www.w3.org/2000/svg" viewBox="0 0 63.76 64"><defs><style>.cls-1{fill:#fff}</style></defs><title>Ресурс 3edit</title><g id="Слой_2" data-name="Слой 2"><path class="cls-1" d="M61.26 7.06l-4.57-4.57c-2.91-3.32-8.31-3.32-11.64 0l-5.4 5.4a1.8 1.8 0 0 1-.18.6L3.08 44.88c0 .42-.41.83-.41 1.25L.17 61.92c-.42.41 0 1.25.42 1.66.41 0 1.25.42 1.66.42L18 61.92a1.53 1.53 0 0 0 1.25-.42l36.61-36.56a6.42 6.42 0 0 1 .3-1.14l5.1-5.1c3.33-2.91 3.33-8.31 0-11.64zM21.57 53L11.19 42.6l29.92-29.92L51.5 23.07zm-4.36 4.36L4.74 59.43 6.82 47l1.45-1.46L18.66 55.9zm41.56-41.57l-4.16 4.16L44.22 9.56l4.16-4.16a4 4 0 0 1 5.82 0l4.57 4.6a4 4 0 0 1 0 5.82zm0 0" id="Слой_1-2" data-name="Слой 1"/></g></svg>