<svg xmlns="http://www.w3.org/2000/svg" viewBox="0 0 89.27 80.51"><defs><style>.cls-1{fill:#e32128}</style></defs><title>Ресурс 8</title><g id="Слой_2" data-name="Слой 2"><g id="Слой_1-2" data-name="Слой 1"><path class="cls-1" d="M12.22 52c3.16 0 6.13.08 9.09-.09.47 0 1.09-1.15 1.26-1.86.86-3.5 1.54-7 2.41-10.53.15-.59.87-1 1.32-1.55a7.6 7.6 0 0 1 .23 2.14c-.57 3.16-1.2 6.32-1.91 9.46-.45 2 .41 2.54 2.21 2.5C29.44 52 32 52 34.65 52c1.66 0 2.52-.53 2.32-2.34a11.27 11.27 0 0 1 0-3.07 10.39 10.39 0 0 1 1-2.28 11.54 11.54 0 0 1 .91 2.4 15.73 15.73 0 0 1 0 3.31c-.09 1.45.57 2 1.95 2h8c1.48 0 2-.66 1.77-2-.21-1.56-.44-3.11-.51-4.68 0-.48.42-1 .65-1.48.4.37 1.08.69 1.17 1.12a33.31 33.31 0 0 1 .67 5.15c.06 1.44.67 2 2 1.93 2.29 0 4.58-.06 6.86 0 1.65.05 2.13-.76 1.81-2.19-.46-2.07-1.05-4.11-1.46-6.18a6.27 6.27 0 0 1 .29-2c.47.51 1.15.94 1.38 1.55a27.1 27.1 0 0 1-12.13 33.69c-14.12 7.81-31.44 2.48-38.62-12.54C8.44 55.46 10 42.62 16.5 35.64a6.61 6.61 0 0 1 1.86-1c-.15.77 0 1.74-.48 2.28A25 25 0 0 0 12.22 52zm24.72 13.89c0-3.75.06-7.21-.07-10.66 0-.46-.93-1.24-1.45-1.26-3.15-.12-6.31-.13-9.46 0-.5 0-1.42 1.05-1.35 1.49.55 3.4 1.24 6.79 2 10.15a1.92 1.92 0 0 0 1.47 1.11c2.92-.16 5.79-.52 8.86-.83zm13.67 1c1.1.37 2 .72 3 1 4.1 1.23 4.72 1.07 6.6-2.43s3.34-7.19 3.1-11.43H53.08zm-2 0l2.5-12.79h-12v11.75zM12.25 54a24.59 24.59 0 0 0 4.87 14 1.76 1.76 0 0 0 1.42.6c2.19-.37 4.35-.87 6.29-1.28L22.11 54zm24.51 24.21V68l-8.76.69c2.43 7.5 4.62 9.88 8.76 9.52zm2.29.09c3.2 0 3.18 0 4.73-2.49 1.4-2.24 2.88-4.43 3.4-7.32L39.06 68zm6.3-.85a23.45 23.45 0 0 0 11.16-7.24l-6.95-1.08zM29 77.52l.54-.66c-1.09-2.33-2.17-4.66-3.3-7a1 1 0 0 0-.79-.41c-1.85.25-3.69.57-5.53.86l-.18 1.12z"/><path class="cls-1" d="M84 22.33c-2-1.14-4-2.32-6-3.43C68 13.33 57.92 7.73 47.79 2.27A6.66 6.66 0 0 0 44 2c-5.67.82-11.32 1.77-17 2.7-7.35 1.17-14.68 2.4-22.14 3.64 2.29 2.82 6.63 2.69 8.18 6l-.58.86L0 8.33l.07-.89C1.8 7 3.5 6.42 5.26 6.14Q18.38 4 31.53 1.95C36.26 1.21 41 .32 45.76 0c1.82-.12 3.86.95 5.57 1.88 12 6.53 23.84 13.17 35.74 19.79a20.07 20.07 0 0 1 2.19 1.73 12.09 12.09 0 0 1-2.28 1c-3.48.58-7 1.15-10.47 1.56-1.28.15-1.8.55-1.77 1.87.06 3.71 0 7.41.06 11.12a2.66 2.66 0 0 0 .55 1.71c3.44 3.42 2.48 7.79-1.34 11.53a7.45 7.45 0 0 1-2-11.06 3 3 0 0 0 .76-1.43c.06-4.23 0-8.46 0-13-4.42.65-8.44 1.21-12.46 1.83-5.31.76-10.68 1.47-16 2.47-3.45.65-5.75-1.59-8.34-2.94-6.63-3.45-13.13-7.15-19.63-10.84-.75-.43-4.9-2.48-5.5-3.18.21-.23.26-1.19.47-1.42 2.07 1.12 8 4.09 10.06 5.22 6.35 3.47 12.67 7 19.05 10.38a5.15 5.15 0 0 0 2.92.56C49.48 28 55.61 27 61.75 26.15 66.88 25.42 72 24.76 77.16 24c2.23-.32 4.44-.77 6.66-1.17zM73.7 49.39c1.49-1.79 2.36-3.56 1.23-5.76a6.81 6.81 0 0 0-1-1.15 6 6 0 0 0-1.3 1.15c-1.28 2.11.07 3.82 1.07 5.76z"/><path class="cls-1" d="M60.42 37.82c0-2-.05-4.13 0-6.24 0-.48.53-.93.82-1.39.27.47.76.94.78 1.42a52.13 52.13 0 0 1 0 6.61A2.48 2.48 0 0 1 60.47 40c-6.26 1-12.52 2.16-18.84 2.77-1.95.19-4.18-.87-6-1.83-4.83-2.49-9.48-5.32-14.28-7.86-1.48-.78-1.66-1.6-1.07-3 .73-1.72 1.25-3.54 2-5.24.23-.51 1-.78 1.49-1.16.11.62.25 1.23.3 1.85 0 .2-.23.4-.31.62C22 31.33 22 31.32 26.87 34 31 36.19 35 38.48 39.18 40.61a5.13 5.13 0 0 0 2.91.34c5.82-.86 11.62-1.82 17.42-2.75a5.47 5.47 0 0 0 .91-.38z"/></g></g></svg>