<svg xmlns="http://www.w3.org/2000/svg" viewBox="0 0 53 57.18"><defs><style>.cls-1{fill:#fff}</style></defs><title>Ресурс 4exit</title><g id="Слой_2" data-name="Слой 2"><g id="Слой_1-2" data-name="Слой 1"><path class="cls-1" d="M25.53 53.9H10.62a7.35 7.35 0 0 1-7.34-7.34V10.62a7.35 7.35 0 0 1 7.34-7.34h15.15a1.64 1.64 0 0 0 0-3.28H10.62A10.63 10.63 0 0 0 0 10.62v35.94a10.63 10.63 0 0 0 10.62 10.62h14.91a1.64 1.64 0 0 0 0-3.28zm0 0"/><path class="cls-1" d="M52.52 27.44L42.11 17a1.64 1.64 0 1 0-2.32 2.32L47.41 27H14.17a1.64 1.64 0 1 0 0 3.28h33.24l-7.62 7.62a1.64 1.64 0 0 0 1.15 2.8 1.6 1.6 0 0 0 1.15-.49l10.42-10.44a1.64 1.64 0 0 0 0-2.33zm0 0"/></g></g></svg>