<svg xmlns="http://www.w3.org/2000/svg" viewBox="0 0 35.3 35.3"><defs><style>.cls-1{fill:#fff}</style></defs><title>Ресурс 5exit</title><g id="Слой_2" data-name="Слой 2"><g id="Слой_1-2" data-name="Слой 1"><path class="cls-1" d="M17.54 10.68c1.63 0 2.62.87 2.62 2.34 0 2.67-4.76 3.41-4.76 6.65a1.73 1.73 0 0 0 1.74 1.82c1.8 0 1.58-1.33 2.23-2.29.87-1.28 4.93-2.64 4.93-6.18 0-3.84-3.43-5.44-6.92-5.44-3.32 0-6.37 2.37-6.37 5a1.63 1.63 0 0 0 1.77 1.66c2.64 0 1.28-3.6 4.76-3.6zm1.93 14.81a2.23 2.23 0 1 0-2.23 2.23 2.24 2.24 0 0 0 2.23-2.23zm0 0"/><path class="cls-1" d="M35.3 17.65A17.65 17.65 0 1 0 17.65 35.3 17.67 17.67 0 0 0 35.3 17.65zm-33.54 0a15.89 15.89 0 1 1 15.89 15.9 15.91 15.91 0 0 1-15.89-15.9zm0 0"/></g></g></svg>