<svg xmlns="http://www.w3.org/2000/svg" viewBox="0 0 40.1 41.47"><defs><style>.cls-1{fill:#fff}</style></defs><title>Ресурс 13exit</title><g id="Слой_2" data-name="Слой 2"><g id="Слой_1-2" data-name="Слой 1"><path class="cls-1" d="M1.22 41.46H9a3.82 3.82 0 0 0 3.41-2.11c4.34 1.88 8.1 2.13 12.43 2.13h8.8a3.81 3.81 0 0 0 3.28-5.75 3.81 3.81 0 0 0 1.3-5.19 3.81 3.81 0 0 0 .83-5.83 3.81 3.81 0 0 0-2.77-6.44h-6.91A12.12 12.12 0 0 0 31 11.94v-.41a5.14 5.14 0 0 0-5-5.15 2.61 2.61 0 0 0-2.57 2.35c-.52 6.22-6.51 9.42-10.52 11.37v-.64a1.22 1.22 0 0 0-1.22-1.22H1.22A1.22 1.22 0 0 0 0 19.46v20.78a1.22 1.22 0 0 0 1.22 1.22zM12.84 22.8l.39-.19a34.4 34.4 0 0 0 7.51-4.53 13.27 13.27 0 0 0 5-9.15.18.18 0 0 1 .15-.12 2.72 2.72 0 0 1 2.67 2.71v.41a10.5 10.5 0 0 1-2 6.3H24.6a1.22 1.22 0 0 0 0 2.43h11.69a1.38 1.38 0 0 1 0 2.76h-2.6a1.22 1.22 0 1 0 0 2.43h2.55a1.38 1.38 0 0 1 0 2.76h-2.55a1.22 1.22 0 1 0 0 2.43h1.25a1.38 1.38 0 0 1 0 2.76h-1.3a1.22 1.22 0 1 0 0 2.43 1.38 1.38 0 0 1 0 2.76H27.1c-5.43.05-9.41.09-14.26-2.16V22.8zM2.43 20.68h8v17A1.38 1.38 0 0 1 9 39H7.63v-4a1.22 1.22 0 1 0-2.43 0v4H2.43zM35 11.43h2.6a1.22 1.22 0 1 0 0-2.43H35a1.22 1.22 0 1 0 0 2.43z"/><path class="cls-1" d="M16.8 11.43h2.6a1.22 1.22 0 1 0 0-2.43h-2.6a1.22 1.22 0 1 0 0 2.43zm5.44-7.35a1.22 1.22 0 1 0 2.11-1.22L23 .61a1.22 1.22 0 1 0-2.11 1.22zm8.23.44a1.22 1.22 0 0 0 1.66-.45l1.3-2.25A1.22 1.22 0 1 0 31.32.61L30 2.86a1.22 1.22 0 0 0 .47 1.66z"/></g></g></svg>