<svg xmlns="http://www.w3.org/2000/svg" viewBox="0 0 75.36 52.96"><defs><style>.cls-1{fill:#fff}</style></defs><title>Ресурс 10</title><g id="Слой_2" data-name="Слой 2"><g id="Слой_1-2" data-name="Слой 1"><path class="cls-1" d="M25.36 4.48h50v4h-50z"/><path class="cls-1" transform="rotate(135 10.1 6.363)" d="M3.1 4.36h14v4h-14z"/><path class="cls-1" transform="rotate(-135 4.596 8.365)" d="M.1 6.36h9v4h-9z"/><path class="cls-1" d="M25.36 24.48h50v4h-50z"/><path class="cls-1" transform="rotate(135 10.097 26.366)" d="M3.1 24.36h14v4h-14z"/><path class="cls-1" transform="rotate(-135 4.596 28.364)" d="M.1 26.36h9v4h-9z"/><path class="cls-1" transform="rotate(135 10.096 46.364)" d="M3.1 44.36h14v4h-14z"/><path class="cls-1" transform="rotate(-135 4.597 48.362)" d="M.1 46.36h9v4h-9z"/><path class="cls-1" d="M25.36 44.48h50v4h-50z"/></g></g></svg>