<svg xmlns="http://www.w3.org/2000/svg" viewBox="0 0 52.24 40.89"><defs><style>.cls-1{fill:#fff}</style></defs><title>Ресурс 24exit</title><g id="Слой_2" data-name="Слой 2"><g id="Слой_1-2" data-name="Слой 1"><path class="cls-1" d="M51.23 25a2.19 2.19 0 0 0-2.25.21l-14.46 9.16a.86.86 0 0 0 .92 1.46l14.46-9.11c.31-.19.47-.18.5-.16s.13.15.13.51A3.79 3.79 0 0 1 49 29.86l-14 8.82a2 2 0 0 1-1.87.35 2 2 0 0 1-.7-1.77A8.43 8.43 0 0 1 35.88 31l16-10.05a.86.86 0 0 0 0-1.46L21.17.13a.86.86 0 0 0-.92 0L4.09 10.31A9.62 9.62 0 0 0 0 17.72v.46a9.61 9.61 0 0 0 4.09 7.42l24 15.13a.86.86 0 0 0 .91-1.46L5 24.14a8 8 0 0 1-3.29-6v-.46a8 8 0 0 1 3.29-6l15.7-9.89 29.06 18.3L35 29.5a10.07 10.07 0 0 0-4.29 7.77 3.51 3.51 0 0 0 1.59 3.28 2.75 2.75 0 0 0 1.34.34 4.32 4.32 0 0 0 2.27-.74l14-8.83a5.51 5.51 0 0 0 2.35-4.25 2.19 2.19 0 0 0-1-2zm0 0"/><path class="cls-1" d="M40.61 21a.86.86 0 0 0 .46-1.59L21.17 6.92a.86.86 0 0 0-.92 1.46l19.9 12.52a.86.86 0 0 0 .46.13zm-3.44 2.32a.86.86 0 0 0 .46-1.59l-8.41-5.27a.86.86 0 1 0-.91 1.46l8.41 5.27a.86.86 0 0 0 .46.13zm-11.46-4.59a.86.86 0 0 0-.91 1.46l8.47 5.29a.86.86 0 1 0 .91-1.48zm-9.04-9.56l-7.15 4.51a.86.86 0 0 0 0 1.46l8.54 5.31a.86.86 0 0 0 .92 0l1.9-1.23a.86.86 0 1 0-.93-1.45l-1.44.93-6.91-4.3 5.53-3.49 6.8 4.27-.79.51a.86.86 0 0 0 .93 1.45L26 15.89a.86.86 0 0 0 0-1.45l-8.41-5.27a.86.86 0 0 0-.92 0zM31 27.49a.86.86 0 0 0-.28-1.19L22.2 21a.86.86 0 1 0-.91 1.46l8.54 5.31a.86.86 0 0 0 1.17-.28zM6.15 16.47a.86.86 0 0 0 .28 1.19l21.07 13.1a.86.86 0 1 0 .91-1.46L7.33 16.19a.86.86 0 0 0-1.19.28zm0 0"/></g></g></svg>