<svg xmlns="http://www.w3.org/2000/svg" viewBox="0 0 47.99 44.97"><defs><style>.cls-1{fill:#fff}</style></defs><title>Ресурс 14exit</title><g id="Слой_2" data-name="Слой 2"><g id="Слой_1-2" data-name="Слой 1"><path class="cls-1" d="M8 13h19.47a1.4 1.4 0 0 0 0-2.8H8A1.4 1.4 0 0 0 8 13zm0 4.78h19.47a1.4 1.4 0 0 0 0-2.8H8a1.4 1.4 0 1 0 0 2.8zM18.28 34.2H8A1.4 1.4 0 1 0 8 37h10.28a1.4 1.4 0 1 0 0-2.8zm0 0"/><path class="cls-1" d="M47.31 2.67L43.2.2a1.4 1.4 0 0 0-1.92.48l-7.16 11.93V4.15a1.4 1.4 0 0 0-1.4-1.4H1.4A1.4 1.4 0 0 0 0 4.15v39.42A1.4 1.4 0 0 0 1.4 45h31.32a1.4 1.4 0 0 0 1.4-1.4V27.37L47.79 4.59a1.4 1.4 0 0 0-.48-1.92zM29.25 30.05L26.92 32l.61-3L40.95 6.66l1.71 1zM44.1 5.29l-1.71-1 .61-.97 1.71 1zM2.8 42.17V5.55h28.52v11.72l-2.47 4.12a1.42 1.42 0 0 0 0-.2 1.4 1.4 0 0 0-1.4-1.4H8a1.4 1.4 0 1 0 0 2.8h19.47a1.39 1.39 0 0 0 .83-.27l-1.37 2.28H8a1.4 1.4 0 1 0 0 2.8h17.25l-.24.4a1.41 1.41 0 0 0-.17.44l-.24 1.16H8a1.4 1.4 0 1 0 0 2.8h16l-.64 3.12a1.4 1.4 0 0 0 2.26 1.36l5.57-4.62.11-.1v10.21zm0 0"/></g></g></svg>