<svg xmlns="http://www.w3.org/2000/svg" viewBox="0 0 40.26 37.74"><defs><style>.cls-1{fill:#fff;fill-rule:evenodd}</style></defs><title>Ресурс 4exit</title><g id="Слой_2" data-name="Слой 2"><path class="cls-1" d="M37.74 0L26.42 7.55H10.06C4.51 7.55 0 10.8 0 16.35a8.8 8.8 0 0 0 7.55 8.81c.06.34 0 10.06 0 10.06a2.51 2.51 0 0 0 2.51 2.52h3.78a2.52 2.52 0 0 0 2.51-2.52V25.16h10.07l11.32 7.55a2.52 2.52 0 0 0 2.52-2.52V2.52A2.52 2.52 0 0 0 37.74 0zm-23.9 34a1.26 1.26 0 0 1-1.26 1.25h-1.26A1.26 1.26 0 0 1 10.06 34v-8.84h3.78zm6.29-11.33H10.06c-2.5 0-7.54-.73-7.54-6.29s5-6.37 7.54-6.29h10.07zm6.29 0h-3.78V10.06h3.78zm11.32 7.55l-8.81-6.32V8.81l8.81-6.29zm0 0" id="Слой_1-2" data-name="Слой 1"/></g></svg>