<svg xmlns="http://www.w3.org/2000/svg" viewBox="0 0 33.2 37.25"><defs><style>.cls-1{fill:#0086ac}</style></defs><title>Ресурс 25exit</title><g id="Слой_2" data-name="Слой 2"><g id="Слой_1-2" data-name="Слой 1"><path class="cls-1" d="M32.93 14.37l-4-4a.92.92 0 0 0-1.3 0l-3.54 3.54L15 23a.93.93 0 0 0-.26.5L14 28.27a.92.92 0 0 0 .91 1.07H15l4.76-.78a.92.92 0 0 0 .5-.26l12.67-12.63a.92.92 0 0 0 0-1.3zM19.22 26.78L16 27.3l.52-3.2 8.22-8.22 2.68 2.68zm9.52-9.52l-2.68-2.68 2.24-2.24L31 15zm0 0"/><path class="cls-1" d="M28.44 23.68a.92.92 0 0 0-.92.92v10.8H1.84V1.84h25.68v6a.92.92 0 0 0 1.84 0V.92a.92.92 0 0 0-.92-.92H.92A.92.92 0 0 0 0 .92v35.41a.92.92 0 0 0 .92.92h27.52a.92.92 0 0 0 .92-.92V24.6a.92.92 0 0 0-.92-.92zm0 0"/><path class="cls-1" d="M12.06 5.17a.92.92 0 0 0-1.3 0L7.24 8.68 5.85 7.29a.92.92 0 1 0-1.3 1.3l2 2a.92.92 0 0 0 1.3 0l4.16-4.16a.92.92 0 0 0 0-1.3zm0 10.83a.92.92 0 0 0-1.3 0l-3.52 3.53-1.39-1.39a.92.92 0 1 0-1.3 1.3l2 2a.92.92 0 0 0 1.3 0l4.16-4.16a.92.92 0 0 0 0-1.3zm-1.31 10.87l-3.51 3.51L5.85 29a.92.92 0 1 0-1.3 1.3l2 2a.92.92 0 0 0 1.3 0l4.16-4.16a.92.92 0 1 0-1.3-1.3zm0 0"/></g></g></svg>