<svg xmlns="http://www.w3.org/2000/svg" viewBox="0 0 33.56 52.98"><defs><style>.cls-1{fill:#fff}</style></defs><title>Ресурс 17exit</title><g id="Слой_2" data-name="Слой 2"><g id="Слой_1-2" data-name="Слой 1"><path class="cls-1" d="M16.78 6.18a15 15 0 1 0 15 15 15 15 0 0 0-15-15m0 31.79a16.78 16.78 0 1 1 16.78-16.78A16.8 16.8 0 0 1 16.78 38"/><path class="cls-1" d="M16.78 4.42a16.57 16.57 0 0 1 8.83 2.52V1.77H7.95v5.17a16.57 16.57 0 0 1 8.83-2.52M31 9.51a1.21 1.21 0 0 1-.65-.19 20.42 20.42 0 0 0-11.09-3.14A20.42 20.42 0 0 0 8.19 9.33a1.24 1.24 0 0 1-1.12.1.88.88 0 0 1-.6-.79V.88A1 1 0 0 1 7.54 0H31a1 1 0 0 1 1 .88v7.75a.88.88 0 0 1-.6.79 1.25 1.25 0 0 1-.47.09M16.78 41.5a.88.88 0 0 1 .62.26L25.61 50V35.45a16.71 16.71 0 0 1-17.66 0V50l8.21-8.21a.88.88 0 0 1 .62-.26M31 53a1.19 1.19 0 0 1-.75-.26l-11-9.09-11 9.09a1.23 1.23 0 0 1-1.16.19.9.9 0 0 1-.66-.82V33.76a.88.88 0 0 1 .6-.79 1.25 1.25 0 0 1 1.12.1 20.42 20.42 0 0 0 11.07 3.15 20.42 20.42 0 0 0 11.07-3.15 1.25 1.25 0 0 1 1.12-.1.88.88 0 0 1 .6.79V52.1a.9.9 0 0 1-.66.82A1.27 1.27 0 0 1 31 53"/><path class="cls-1" d="M16.78 26.07a.89.89 0 0 1 .35.07l5.47 2.38-1.21-5.35a.88.88 0 0 1 .23-.81l3.94-4.09-5.56-.86a.88.88 0 0 1-.65-.48l-2.57-5.23-2.59 5.23a.88.88 0 0 1-.65.48L8 18.27l3.94 4.09a.88.88 0 0 1 .23.81L11 28.52l5.47-2.38a.89.89 0 0 1 .35-.07m11 4.84a1.25 1.25 0 0 1-.43-.07l-8.1-2.92-8.1 2.92a1.24 1.24 0 0 1-1.11-.13.8.8 0 0 1-.36-.87l1.79-6.59-5.78-5a.78.78 0 0 1-.24-.89 1 1 0 0 1 .85-.59l8.16-1.05 3.8-6.4a1.24 1.24 0 0 1 1.91 0l3.84 6.41 8.16 1.05a1 1 0 0 1 .85.59.78.78 0 0 1-.24.89l-5.78 5 1.79 6.59a.8.8 0 0 1-.36.87 1.21 1.21 0 0 1-.68.2"/></g></g></svg>