<svg xmlns="http://www.w3.org/2000/svg" viewBox="0 0 34.08 41.86"><defs><style>.cls-1{fill:#fff}</style></defs><title>Ресурс 23exit</title><g id="Слой_2" data-name="Слой 2"><g id="Слой_1-2" data-name="Слой 1"><path class="cls-1" d="M34.08 7.87v-.44l-.05-.06-7-7-.29-.14h-.2L26.4 0H1a1 1 0 0 0-1 1v39.86a1 1 0 0 0 1 1h32.09a1 1 0 0 0 1-1V8a1 1 0 0 0 0-.1zm-7-4.47l3.6 3.6h-3.57zM2 39.86V2h23.11v6a1 1 0 0 0 1 1h6v30.9zm0 0"/><path class="cls-1" d="M9 15.35a1 1 0 0 0 1 1h6.38a1 1 0 1 0 0-2H10a1 1 0 0 0-1 1zm7.15-4.99a3 3 0 1 0-3 3 3 3 0 0 0 3-3zm-4 0a1 1 0 1 1 1 1 1 1 0 0 1-1-1zm0 0"/><path class="cls-1" d="M6 20.33h14.33a1 1 0 0 0 1-1v-3.17a1 1 0 1 0-2 0v2.18H7V6h12.33v6.78a1 1 0 1 0 2 0V5a1 1 0 0 0-1-1H6a1 1 0 0 0-1 1v14.33a1 1 0 0 0 1 1zm22.1 2.99H6a1 1 0 1 0 0 2h22.1a1 1 0 0 0 0-2zm0 4.98H6a1 1 0 1 0 0 2h22.1a1 1 0 0 0 0-2zm0 4.99H6a1 1 0 1 0 0 2h22.1a1 1 0 1 0 0-2zm0 0"/></g></g></svg>