<svg xmlns="http://www.w3.org/2000/svg" viewBox="0 0 31.24 35.55"><defs><style>.cls-1{fill:#fff}</style></defs><title>Ресурс 22exit</title><g id="Слой_2" data-name="Слой 2"><g id="Слой_1-2" data-name="Слой 1"><path class="cls-1" d="M3.12 0A3.13 3.13 0 0 0 0 3.12v29.3a3.13 3.13 0 0 0 3.12 3.12h25a3.13 3.13 0 0 0 3.12-3.12V3.12A3.13 3.13 0 0 0 28.12 0zm26 32.42a1 1 0 0 1-1 1h-25a1 1 0 0 1-1-1v-22h27.04zm0-29.3v5.21H2.08V3.12a1 1 0 0 1 1-1h25a1 1 0 0 1 1.08 1z"/><path class="cls-1" d="M26 4.17h-2a1 1 0 0 0 0 2.08h2a1 1 0 0 0 0-2.08zm-6.21 0H17.7a1 1 0 0 0 0 2.08h2.08a1 1 0 0 0 0-2.08zm-4.17 27.21A9.42 9.42 0 0 0 25 21.94a9.37 9.37 0 1 0-9.37 9.46zm0-2.08a7.33 7.33 0 0 1-7.29-7.14 6.65 6.65 0 0 0 6.87-.32 4.58 4.58 0 0 1 5.09 0 6.66 6.66 0 0 0 2.55 1 7.32 7.32 0 0 1-7.22 6.46zm0-14.72a7.32 7.32 0 0 1 7.19 6.14 4.59 4.59 0 0 1-1.35-.61 6.66 6.66 0 0 0-7.4 0A4.58 4.58 0 0 1 9 20.1l-.34-.21a7.31 7.31 0 0 1 6.96-5.31z"/></g></g></svg>