<svg width="11" height="10" viewBox="0 0 11 10" fill="none" xmlns="http://www.w3.org/2000/svg"><path fill-rule="evenodd" clip-rule="evenodd" d="M3.32 4.739c.34.334.748.552 1.22.652.275.058.83.04 1.112-.036a2.479 2.479 0 0 0 1.723-1.734c.085-.308.084-.93-.002-1.236A2.461 2.461 0 0 0 6.1.84 2.135 2.135 0 0 0 5.02.586c-.43 0-.693.062-1.081.253-1.494.738-1.81 2.73-.62 3.9zm-1.838 2.88C.621 8.23.145 8.95.024 9.824L0 10h10.04l-.025-.176c-.12-.875-.596-1.595-1.458-2.205-.732-.518-1.531-.823-2.576-.985-.416-.064-1.506-.064-1.922 0-1.045.162-1.844.467-2.577.985z" fill="#fff"/></svg>