<svg width="10" height="11" viewBox="0 0 10 11" fill="none" xmlns="http://www.w3.org/2000/svg"><path fill-rule="evenodd" clip-rule="evenodd" d="M5.25 0c.452 0 .818.32.818.716v5.69l1.347-1.178a.888.888 0 0 1 .673-.217c.315.03.582.216.686.477a.655.655 0 0 1-.2.746L5.847 8.621a.88.88 0 0 1-.58.21.881.881 0 0 1-.58-.21L1.96 6.234a.663.663 0 0 1-.25-.709c.073-.258.305-.46.601-.522a.892.892 0 0 1 .808.225l1.313 1.148V.716C4.432.32 4.798 0 5.25 0zm3.818 9.068c.452 0 .818.32.818.716 0 .395-.366.716-.818.716H1.432c-.452 0-.818-.32-.818-.716 0-.395.366-.716.818-.716h7.636z" fill="#fff"/></svg>