<svg width="12" height="12" viewBox="0 0 12 12" fill="none" xmlns="http://www.w3.org/2000/svg"><path fill-rule="evenodd" clip-rule="evenodd" d="M11.31.603a.58.58 0 0 0-.6-.602l-.406.014a.55.55 0 0 0-.349.14l-3.183 2.66-5.78-.476a.525.525 0 0 0-.42.154L0 3.067l4.594 2.212L2.47 7.673l-1.633.084c-.07 0-.14.028-.182.084l-.223.224 1.899.938.935 1.905.224-.224a.247.247 0 0 0 .083-.182l.07-1.653L6.06 6.707l2.22 4.607.572-.574a.528.528 0 0 0 .154-.42L8.53 4.523l2.653-3.192a.732.732 0 0 0 .112-.322l.014-.406z" fill="#fff"/></svg>