<svg width="12" height="12" viewBox="0 0 12 12" fill="none" xmlns="http://www.w3.org/2000/svg"><path fill-rule="evenodd" clip-rule="evenodd" d="M6 12c-3.308 0-6-2.692-6-6s2.692-6 6-6a6.007 6.007 0 0 1 5.878 7.209A2.258 2.258 0 0 1 9.21 8.968a2.23 2.23 0 0 1-1.23-.717A2.987 2.987 0 0 1 6 9C4.346 9 3 7.655 3 6s1.346-3 3-3a3.003 3.003 0 0 1 2.93 3.645c-.03.186.01.373.114.531.11.168.278.283.474.324a.756.756 0 0 0 .887-.581A4.505 4.505 0 0 0 6 1.5 4.505 4.505 0 0 0 1.5 6a4.505 4.505 0 0 0 6.048 4.227.75.75 0 1 1 .514 1.41A5.985 5.985 0 0 1 6 12zM5 6a1.001 1.001 0 0 1 2 0 1.001 1.001 0 0 1-2 0z" fill="#fff"/></svg>