<svg width="10" height="11" viewBox="0 0 10 11" fill="none" xmlns="http://www.w3.org/2000/svg">
<path fill-rule="evenodd" clip-rule="evenodd" d="M4.63638 0C5.08824 0 5.45456 0.320536 5.45456 0.715909V6.40588L6.80115 5.22762C6.9756 5.06873 7.22394 4.98896 7.47444 5.01136C7.78917 5.04088 8.05621 5.22659 8.16013 5.48821C8.26405 5.74982 8.18621 6.04042 7.96024 6.23438L5.23297 8.62074C5.07944 8.75552 4.87091 8.83127 4.65343 8.83127C4.43595 8.83127 4.22741 8.75552 4.07388 8.62074L1.34661 6.23438C1.11851 6.05746 1.02171 5.78427 1.09541 5.52547C1.16911 5.26668 1.4011 5.06518 1.6974 5.0026C1.9937 4.94002 2.30519 5.02674 2.5057 5.22762L3.8182 6.37605V0.715909C3.8182 0.320536 4.18453 0 4.63638 0ZM8.45454 9.06812C8.9064 9.06812 9.27273 9.38865 9.27273 9.78402C9.27273 10.1794 8.9064 10.4999 8.45454 10.4999H0.818182C0.366327 10.4999 0 10.1794 0 9.78402C0 9.38865 0.366327 9.06812 0.818182 9.06812H8.45454Z" transform="translate(0.613647)" fill="white"/>
</svg>
