<svg width="12" height="12" viewBox="0 0 12 12" fill="none" xmlns="http://www.w3.org/2000/svg">
<path fill-rule="evenodd" clip-rule="evenodd" d="M6 12C2.69177 12 0 9.30835 0 6C0 2.69165 2.69177 0 6 0C9.30823 0 12 2.69165 12 6C12 6.40723 11.9587 6.81445 11.8777 7.20898C11.6198 8.43896 10.4235 9.22266 9.21149 8.96777C8.72821 8.86719 8.30066 8.61694 7.9809 8.25146C7.45215 8.71729 6.75854 9 6 9C4.34552 9 3 7.65454 3 6C3 4.34546 4.34552 3 6 3C7.65448 3 9 4.34546 9 6C9 6.22144 8.97589 6.43726 8.93018 6.64502C8.90015 6.83081 8.93939 7.01758 9.04352 7.17603C9.15375 7.34399 9.32178 7.45874 9.51752 7.5C9.92102 7.57959 10.32 7.32373 10.4055 6.9187C10.4692 6.61133 10.5 6.30664 10.5 6C10.5 3.51831 8.48175 1.5 6 1.5C3.51825 1.5 1.5 3.51831 1.5 6C1.5 8.48169 3.51825 10.5 6 10.5C6.53101 10.5 7.05225 10.4084 7.54797 10.2271C7.93726 10.0859 8.367 10.2839 8.50952 10.6748C8.65125 11.064 8.45172 11.4944 8.06177 11.6362C7.40173 11.8777 6.70728 12 6 12ZM5 6C5 5.44849 5.44849 5 6 5C6.55151 5 7 5.44849 7 6C7 6.55151 6.55151 7 6 7C5.44849 7 5 6.55151 5 6Z" fill="white"/>
</svg>
