<svg width="12" height="12" viewBox="0 0 12 12" fill="none" xmlns="http://www.w3.org/2000/svg">
<path fill-rule="evenodd" clip-rule="evenodd" d="M11.3095 0.602567C11.3235 0.266532 11.0442 -0.0134982 10.7091 0.000503313L10.3042 0.0145048C10.1785 0.0145048 10.0529 0.0705108 9.95515 0.15452L6.77174 2.8148L0.991326 2.33875C0.837741 2.32475 0.684155 2.38076 0.572456 2.49277L0 3.06683L4.59361 5.27907L2.47133 7.67332L0.837741 7.75733C0.767929 7.75733 0.698117 7.78533 0.65623 7.84134L0.432833 8.06536L2.33171 9.00346L3.26719 10.9077L3.49059 10.6836C3.54644 10.6276 3.57436 10.5716 3.57436 10.5016L3.64417 8.84945L6.05966 6.70722L8.27967 11.3137L8.85213 10.7396C8.96383 10.6276 9.01967 10.4736 9.00571 10.3196L8.53099 4.52298L11.1838 1.33064C11.2397 1.24664 11.2816 1.13462 11.2955 1.00861L11.3095 0.602567Z" fill="white"/>
</svg>
