<svg width="11" height="10" viewBox="0 0 11 10" fill="none" xmlns="http://www.w3.org/2000/svg">
<path fill-rule="evenodd" clip-rule="evenodd" d="M3.31989 4.15283C3.66046 4.4873 4.06812 4.70532 4.53937 4.80493C4.81525 4.86328 5.37012 4.8457 5.65228 4.76929C6.4798 4.5459 7.14001 3.88135 7.37506 3.03491C7.46045 2.72754 7.45923 2.10498 7.37262 1.79932C7.17963 1.11841 6.71918 0.558594 6.10095 0.253418C5.71259 0.0617676 5.44904 0 5.01984 0C4.5907 0 4.32709 0.0617676 3.93872 0.253418C2.4447 0.990967 2.12854 2.9834 3.31989 4.15283ZM1.48236 7.0332C0.621033 7.64258 0.144775 8.36279 0.024231 9.23804L0 9.41406H5.01984H10.0397L10.0154 9.23804C9.8949 8.36279 9.41858 7.64258 8.55731 7.0332C7.82477 6.51514 7.02582 6.20972 5.98083 6.04834C5.5647 5.98389 4.47498 5.98389 4.05884 6.04834C3.01385 6.20972 2.2149 6.51514 1.48236 7.0332Z" transform="translate(0 0.585938)" fill="white"/>
</svg>
