<svg width="146" height="34" viewBox="0 0 146 34" fill="none" xmlns="http://www.w3.org/2000/svg">
<path fill-rule="evenodd" clip-rule="evenodd" d="M23.759 0.0320062C20.5617 0.268242 17.4014 0.776708 10.2854 1.25628L0 1.90365C0.161208 2.58396 0.283889 3.15073 0.418736 3.40217C0.975361 4.43685 2.85714 4.94582 5.82581 4.94886C6.73678 4.95038 8.76963 4.9372 11.8762 4.93771L9.79011 16.3744H12.0039L17.1322 4.93872C22.3669 4.93872 23.6581 4.9443 23.8244 4.93872C26.0275 4.8713 28.8908 4.37601 28.8213 2.97228C28.7204 0.927777 26.648 -0.209299 23.759 0.0320062Z" transform="translate(117.018 11.1857)" fill="#FEFEFE"/>
<path fill-rule="evenodd" clip-rule="evenodd" d="M1.48636 0.00608333L0 0C0 0 0.494271 1.97252 0.976375 3.84416L5.30923 3.56027L1.48636 0.00608333Z" transform="translate(115.678 7.96056)" fill="#FEFEFE"/>
<path fill-rule="evenodd" clip-rule="evenodd" d="M0 9.79721H2.1682L2.81303 7.0881H5.68133C7.74003 7.0881 9.82002 5.77714 10.3437 3.57294C10.9252 1.1239 9.42511 0 7.36438 0H2.3289L0 9.79721ZM6.60498 1.75758C7.67463 1.75758 8.37624 2.39024 8.09844 3.55774C7.83888 4.65274 6.82601 5.33153 5.75636 5.33153H3.23076L4.07837 1.75758H6.60498Z" transform="translate(93.2087 17.6492)" fill="#FEFEFE"/>
<path fill-rule="evenodd" clip-rule="evenodd" d="M12.8627 0H10.3832L6.74185 3.58612L4.81901 0H2.40697L8.02493 9.79721H10.5348L10.5723 9.64006L7.94584 4.91331L12.8313 0.142451L12.8627 0ZM4.13464 5.64432L0.0354861 9.64005L0 9.79721H2.50887L4.26137 8.05889C4.76224 7.5631 4.85754 6.85338 4.50217 6.25873L4.13464 5.64432Z" transform="translate(81.1777 17.6491)" fill="#FEFEFE"/>
<path fill-rule="evenodd" clip-rule="evenodd" d="M8.3367 9.79721L8.75747 8.02594H2.4967L3.05738 5.66308H8.18817L8.60893 3.89029H3.48017L3.98205 1.77228H10.2448L10.6646 0H2.32738L0 9.79721H8.3367Z" transform="translate(71.7232 17.6492)" fill="#FEFEFE"/>
<path fill-rule="evenodd" clip-rule="evenodd" d="M8.33569 9.79721L8.75747 8.02594H2.49569L3.05738 5.66308H8.18715L8.60792 3.89029H3.48017L3.98205 1.77228H10.2438L10.6636 0H2.32637L0 9.79721H8.33569Z" transform="translate(103.338 17.6492)" fill="#FEFEFE"/>
<path fill-rule="evenodd" clip-rule="evenodd" d="M0 9.79822H4.53969C7.65486 9.79822 10.3893 8.07005 11.1391 4.91432C11.8955 1.7302 9.97971 0.0147014 6.86758 0H2.32586L0 9.79822ZM6.35557 1.75859C8.29108 1.75859 9.37746 2.8688 8.8913 4.91432C8.41224 6.93145 6.80117 8.04065 4.86261 8.04065H2.58745L4.07736 1.75859H6.35557Z" transform="translate(60.097 17.6482)" fill="#93D9F7"/>
<path fill-rule="evenodd" clip-rule="evenodd" d="M0 9.79721H2.20217L3.48879 7.83787H8.27587L8.61654 9.79721H10.8162L9.06772 0H6.52792L0 9.79721ZM7.3218 2.00344L8.0888 6.33985H4.40129L7.3218 2.00344Z" transform="translate(36.2755 17.6492)" fill="#93D9F7"/>
<path fill-rule="evenodd" clip-rule="evenodd" d="M7.79073 9.79721H10.1455L16.6734 0H14.3014L9.55337 7.20368L8.44418 0H6.08891C6.63692 3.27131 7.18036 6.53654 7.79073 9.79721ZM5.57994 4.73385L3.64848 7.53472L2.33955 0H0L1.74693 9.79721H4.10219L5.5262 7.74003C5.89475 7.20926 6.00729 6.63185 5.86839 6.0149L5.57994 4.73385Z" transform="translate(22.9715 17.6492)" fill="#93D9F7"/>
<path fill-rule="evenodd" clip-rule="evenodd" d="M8.33721 9.79721L8.75848 8.02594H2.49772L3.0584 5.66308H8.18817L8.60842 3.89029H3.47916L3.98205 1.77228H10.2423L10.6651 0H2.32738L0 9.79721H8.33721Z" transform="translate(11.548 17.6492)" fill="#93D9F7"/>
<path fill-rule="evenodd" clip-rule="evenodd" d="M0 9.79721H2.16871L2.77907 7.23004L3.00719 6.26685L3.38487 4.68214L4.07888 1.75758H6.77531C7.7669 1.75758 8.36053 2.26199 8.13139 3.22721C7.91492 4.13515 7.07188 4.68214 6.0808 4.68214H3.38487C4.51789 7.09013 6.63134 10.7746 10.0086 9.71711L10.5845 7.96815C10.2094 8.11111 9.70951 8.19729 9.35211 8.19729C8.25306 8.19729 7.48503 7.11902 6.70687 6.22274C8.45482 5.97941 10.0172 4.81192 10.404 3.1826C10.9753 0.777653 9.03679 0 6.96035 0H2.32738L0 9.79721Z" transform="translate(0 17.6492)" fill="#93D9F7"/>
<path fill-rule="evenodd" clip-rule="evenodd" d="M0 9.79721H2.16922L2.78008 7.23004L3.00821 6.26685L3.38436 4.68214L4.07938 1.75758H6.77633C7.7674 1.75758 8.36053 2.26199 8.13088 3.22721C7.91594 4.13515 7.07238 4.68214 6.08131 4.68214H3.38436C4.51687 7.09013 6.63185 10.7746 10.0091 9.71711L10.5845 7.96815C10.2083 8.11111 9.709 8.19729 9.35262 8.19729C8.25154 8.19729 7.48554 7.11902 6.70637 6.22274C8.45279 5.97941 10.0172 4.81192 10.404 3.1826C10.9753 0.777653 9.03781 0 6.96035 0H2.32789L0 9.79721Z" transform="translate(48.3075 17.6492)" fill="#93D9F7"/>
<path fill-rule="evenodd" clip-rule="evenodd" d="M0 9.79721H2.1682L2.77806 7.23004L3.00821 6.26685L3.38436 4.68214L4.07837 1.75758H6.77531C7.76538 1.75758 8.36053 2.26199 8.13088 3.22721C7.91492 4.13515 7.07137 4.68214 6.08029 4.68214H3.38436C4.51485 7.09013 6.62982 10.7746 10.0071 9.71711L10.5845 7.96815C10.2094 8.11111 9.70799 8.19729 9.35059 8.19729C8.25154 8.19729 7.48453 7.11902 6.70535 6.22274C8.45279 5.97941 10.0162 4.81192 10.4025 3.1826C10.9743 0.777653 9.03578 0 6.95984 0H2.32687L0 9.79721Z" transform="translate(114.015 17.6492)" fill="#FEFEFE"/>
<path fill-rule="evenodd" clip-rule="evenodd" d="M4.85044 4.25935L1.77583 0H0L0.61391 4.6355L4.85044 4.25935Z" transform="translate(128.069 6.31725)" fill="#93D9F7"/>
<path fill-rule="evenodd" clip-rule="evenodd" d="M3.44672 0.859779H2.68732L2.09875 3.24901H2.73548C3.76305 3.24901 4.56048 2.81354 4.6426 1.8762C4.69532 1.27294 4.34046 0.859779 3.44672 0.859779ZM2.5616 4.08648H1.90257L1.21465 6.84527H2.00751C3.22519 6.84527 4.03681 6.37584 4.12552 5.35942C4.19497 4.56706 3.7007 4.08648 2.5616 4.08648ZM4.11892 3.65101C4.81851 3.95315 5.2195 4.47784 5.14853 5.29301C5.00962 6.87873 3.65253 7.70454 1.80979 7.70454H0L1.89141 0H3.56686C5.09733 0 5.76041 0.714792 5.6722 1.73071C5.58805 2.69086 4.9716 3.34989 4.11892 3.65101Z" transform="translate(3.16855 5.9999)" fill="#FEFEFE"/>
<path fill-rule="evenodd" clip-rule="evenodd" d="M3.50658 2.15553C3.61608 1.2846 3.39657 0.726452 2.73754 0.726452C2.16774 0.726452 1.58627 1.25114 1.25017 2.15553H3.50658ZM0.990108 3.33924C0.912039 4.23248 1.28109 4.73486 2.10792 4.73486C2.76695 4.73486 3.26832 4.4895 3.92177 4.04238L3.84421 4.93561C3.19278 5.36043 2.63971 5.54952 1.8803 5.54952C0.662622 5.54952 -0.111989 4.82408 0.0132263 3.39501C0.194205 1.32921 1.56143 0 2.84603 0C3.97449 0 4.57674 0.770556 4.46471 2.05515C4.44088 2.32282 4.37853 2.6574 4.31414 2.88097H1.05246C1.02864 3.02646 1.0038 3.1826 0.990108 3.33924Z" transform="translate(9.16283 8.2664)" fill="#FEFEFE"/>
<path fill-rule="evenodd" clip-rule="evenodd" d="M1.81525 2.72483L1.08119 5.75078C1.06345 5.82885 1.04165 5.95153 1.03354 6.04126C1.00921 6.32008 1.16028 6.51018 1.56228 6.51018C1.77469 6.51018 1.93286 6.48737 2.06973 6.45442L1.99927 7.25792C1.85124 7.29189 1.5344 7.33599 1.16636 7.33599C0.372991 7.33599 -0.0563911 7.01256 0.00596304 6.29777C0.0186367 6.15228 0.0576714 5.96268 0.0916367 5.82885L0.854588 2.72483H0.0951853L0.299484 1.92081H1.04773L1.48269 0.145493L2.48898 0L2.01955 1.92081H3.15865L3.08869 2.72483H1.81525Z" transform="translate(14.5127 6.45767)" fill="#FEFEFE"/>
<path fill-rule="evenodd" clip-rule="evenodd" d="M3.95235 0.915542C3.73589 0.837473 3.56099 0.792355 3.2259 0.792355C2.20948 0.792355 1.13729 1.94261 0.994331 3.57345C0.934005 4.26492 1.15503 4.66693 1.63612 4.66693C2.10454 4.66693 2.6926 4.20967 3.30448 3.59525L3.95235 0.915542ZM1.33905 5.5044C0.468124 5.5044 -0.0915425 4.87934 0.0123811 3.69613C0.209076 1.44023 1.8095 0 3.41803 0C4.01015 0 4.46944 0.111528 5.0651 0.323938L4.16375 3.9861L4.04107 5.39288H3.19194L3.21323 4.51079C2.64241 5.03548 2.00924 5.5044 1.33905 5.5044Z" transform="translate(17.799 8.31152)" fill="#FEFEFE"/>
</svg>
