<svg xmlns="http://www.w3.org/2000/svg" width="32" height="32"><defs><style>.cls-1{fill:#f4b60d;fill-rule:evenodd}</style></defs><path id="params" class="cls-1" d="M912 754.021V751a3 3 0 0 0-6 0v3.021a4.955 4.955 0 0 0 0 7.955V777a3 3 0 1 0 6 0v-15.024a4.955 4.955 0 0 0 0-7.955zM908 751a1 1 0 0 1 2 0v2.1a5.1 5.1 0 0 0-2 0V751zm2 26a1 1 0 1 1-2 0v-14.1a4.953 4.953 0 0 0 2 0V777zm1.865-18.16c-.016.053-.03.106-.049.159a2.912 2.912 0 0 1-.378.736c0 .006-.009.01-.013.016a2.977 2.977 0 0 1-.617.626.022.022 0 0 1-.009.008 2.988 2.988 0 0 1-3.6 0 .031.031 0 0 1-.01-.008 3 3 0 0 1-.616-.626c0-.006-.01-.01-.014-.016a2.979 2.979 0 0 1-.378-.736 3.202 3.202 0 0 1-.048-.159 2.684 2.684 0 0 1 0-1.681c.015-.053.03-.106.048-.157a3.027 3.027 0 0 1 .378-.738c0-.006.01-.01.014-.015a3.055 3.055 0 0 1 .616-.628.036.036 0 0 0 .01-.007 3.077 3.077 0 0 1 .8-.43 2.824 2.824 0 0 1 2 0 3.077 3.077 0 0 1 .8.43.055.055 0 0 0 .009.007 3.035 3.035 0 0 1 .617.628l.013.015a2.959 2.959 0 0 1 .378.738c.019.051.033.1.049.157a2.684 2.684 0 0 1 0 1.68zM934 754.021V751a3 3 0 0 0-6 0v3.021a4.955 4.955 0 0 0 0 7.955V777a3 3 0 1 0 6 0v-15.024a4.955 4.955 0 0 0 0-7.955zM930 751a1 1 0 0 1 2 0v2.1a5.1 5.1 0 0 0-2 0V751zm2 26a1 1 0 1 1-2 0v-14.1a4.953 4.953 0 0 0 2 0V777zm1.865-18.16c-.016.053-.03.106-.049.159a2.912 2.912 0 0 1-.378.736c0 .006-.009.01-.013.016a2.977 2.977 0 0 1-.617.626.022.022 0 0 1-.009.008 2.977 2.977 0 0 1-.8.43 2.988 2.988 0 0 1-2.8-.43.031.031 0 0 1-.01-.008 3 3 0 0 1-.616-.626c0-.006-.01-.01-.014-.016a2.979 2.979 0 0 1-.378-.736 3.202 3.202 0 0 1-.048-.159 2.684 2.684 0 0 1 0-1.681c.015-.053.03-.106.048-.157a3.027 3.027 0 0 1 .378-.738c0-.006.01-.01.014-.015a3.055 3.055 0 0 1 .616-.628.036.036 0 0 0 .01-.007 3.077 3.077 0 0 1 .8-.43 2.824 2.824 0 0 1 2 0 3.093 3.093 0 0 1 .8.43.055.055 0 0 0 .009.007 3.035 3.035 0 0 1 .617.628l.013.015a2.959 2.959 0 0 1 .378.738c.019.051.033.1.049.157a2.684 2.684 0 0 1 0 1.68zM923 766.021V751a3 3 0 0 0-6 0v15.021a4.955 4.955 0 0 0 0 7.955V777a3 3 0 1 0 6 0v-3.023a4.955 4.955 0 0 0 0-7.956zM919 751a1 1 0 0 1 2 0v14.1a5.1 5.1 0 0 0-2 0V751zm2 26a1 1 0 1 1-2 0v-2.1a4.953 4.953 0 0 0 2 0v2.1zm1.865-6.16c-.015.053-.03.106-.049.159a2.945 2.945 0 0 1-.378.736.093.093 0 0 1-.013.015 2.958 2.958 0 0 1-.617.627.022.022 0 0 1-.009.008A3.118 3.118 0 0 1 920 773a3.118 3.118 0 0 1-1.8-.616.031.031 0 0 1-.01-.008 2.978 2.978 0 0 1-.616-.627s-.01-.009-.014-.015a2.979 2.979 0 0 1-.378-.736 3.202 3.202 0 0 1-.048-.159 2.684 2.684 0 0 1 0-1.681c.015-.053.03-.106.048-.157a3.027 3.027 0 0 1 .378-.738c0-.006.01-.01.014-.015a3.026 3.026 0 0 1 .616-.627.087.087 0 0 0 .01-.008 3.077 3.077 0 0 1 .8-.43 2.824 2.824 0 0 1 2 0 3.093 3.093 0 0 1 .8.43l.009.008a3.006 3.006 0 0 1 .617.627.093.093 0 0 1 .013.015 2.992 2.992 0 0 1 .378.738c.019.051.034.1.049.157a2.684 2.684 0 0 1-.001 1.681z" transform="translate(-904 -748)"/></svg>