<svg xmlns="http://www.w3.org/2000/svg" width="15.06" height="15"><defs><style>.cls-1{fill-rule:evenodd;opacity:.2}</style></defs><path id="rss" class="cls-1" d="M1457.99 59.968a2.016 2.016 0 1 0 2.02 2.016 2.016 2.016 0 0 0-2.02-2.016zm-1.85-5.913c-.04 0-.07.007-.11.007v2.792c.04 0 .07-.006.11-.006a7 7 0 0 1 7.01 6.979c0 .059-.01.116-.01.175h2.8c0-.059.01-.116.01-.175a9.8 9.8 0 0 0-9.81-9.772zm0-5.058h-.11v2.792h.11a12.076 12.076 0 0 1 12.09 12.04c0 .059-.01.116-.01.175h2.8c0-.059.01-.116.01-.175A14.878 14.878 0 0 0 1456.14 49z" transform="translate(-1455.97 -49)"/></svg>