<svg xmlns="http://www.w3.org/2000/svg" width="13.97" height="13.969"><defs><style>.cls-1{fill:#fff;fill-rule:evenodd;opacity:.2}</style></defs><path id="search" class="cls-1" d="M1509.68 131a5.677 5.677 0 1 1-5.68 5.677 5.675 5.675 0 0 1 5.68-5.677zm3.61 9.584l.29-.3a.429.429 0 0 1 .6 0l1.48 1.484a.41.41 0 0 1 0 .594l-.3.3a.415.415 0 0 1-.59 0l-1.48-1.484a.41.41 0 0 1 0-.595zm.88 1.586l1-1a.464.464 0 0 1 .66 0l2 2a.477.477 0 0 1 0 .665l-1 1a.465.465 0 0 1-.66 0l-2-2a.477.477 0 0 1 0-.666zm-4.49-8.983a3.49 3.49 0 1 1-3.49 3.49 3.494 3.494 0 0 1 3.49-3.491z" transform="translate(-1504 -131)"/></svg>